<svg xmlns="http://www.w3.org/2000/svg" width="128" height="128" viewBox="0 0 128 128" role="img" aria-label="murmuria for WhatsApp Web">
  <defs>
    <linearGradient id="tile" x1="0" y1="0" x2="128" y2="128" gradientUnits="userSpaceOnUse">
      <stop offset="0" stop-color="#6366F1"/>
      <stop offset="0.5" stop-color="#4F46E5"/>
      <stop offset="1" stop-color="#14B8A6"/>
    </linearGradient>
    <linearGradient id="sheen" x1="0" y1="0" x2="0" y2="128" gradientUnits="userSpaceOnUse">
      <stop offset="0" stop-color="#ffffff" stop-opacity="0.16"/>
      <stop offset="0.45" stop-color="#ffffff" stop-opacity="0"/>
    </linearGradient>
  </defs>
  <rect x="0" y="0" width="128" height="128" rx="29" ry="29" fill="url(#tile)"/>
  <rect x="0" y="0" width="128" height="128" rx="29" ry="29" fill="url(#sheen)"/>
  <g fill="#ffffff">
    <rect x="18" y="22" width="92" height="62" rx="17" ry="17"/>
    <path d="M 34 82 Q 20 100 24 101 Q 40 94 58 82 Z"/>
  </g>
  <g fill="url(#tile)">
    <rect x="34.86" y="60.46" width="5.14" height="10.54" rx="2.57"/>
    <rect x="43.72" y="48.68" width="5.14" height="22.32" rx="2.57"/>
    <rect x="52.57" y="40" width="5.14" height="22" rx="2.57"/>
    <rect x="61.43" y="57.36" width="5.14" height="13.64" rx="2.57"/>
    <rect x="70.29" y="40" width="5.14" height="22" rx="2.57"/>
    <rect x="79.15" y="48.68" width="5.14" height="22.32" rx="2.57"/>
    <rect x="88" y="60.46" width="5.14" height="10.54" rx="2.57"/>
  </g>
</svg>
